<svg xmlns="http://www.w3.org/2000/svg" xmlns:xlink="http://www.w3.org/1999/xlink" width="50" zoomAndPan="magnify" viewBox="0 0 675.12 187.50002" height="50" preserveAspectRatio="xMidYMid meet" version="1.0"><defs><g/><clipPath id="dde3468d97"><path d="M 0.71875 0 L 453 0 L 453 187 L 0.71875 187 Z M 0.71875 0 " clip-rule="nonzero"/></clipPath><clipPath id="bfd3f7d4db"><path d="M 36 143 L 430 143 L 430 187 L 36 187 Z M 36 143 " clip-rule="nonzero"/></clipPath><clipPath id="41ab79adbb"><rect x="0" width="453" y="0" height="187"/></clipPath><clipPath id="bb9543154c"><path d="M 350.191406 127.105469 L 599.074219 127.105469 L 599.074219 187 L 350.191406 187 Z M 350.191406 127.105469 " clip-rule="nonzero"/></clipPath><clipPath id="8c20becea3"><path d="M 0.191406 0.105469 L 249.074219 0.105469 L 249.074219 60 L 0.191406 60 Z M 0.191406 0.105469 " clip-rule="nonzero"/></clipPath><clipPath id="ef847d63e2"><rect x="0" width="250" y="0" height="60"/></clipPath><clipPath id="f17435a374"><path d="M 272.160156 60.933594 L 350.191406 60.933594 L 350.191406 187 L 272.160156 187 Z M 272.160156 60.933594 " clip-rule="nonzero"/></clipPath><clipPath id="51d795cbc7"><path d="M 311.175781 60.933594 C 332.722656 60.933594 350.191406 78.398438 350.191406 99.949219 L 350.191406 195.148438 C 350.191406 216.699219 332.722656 234.164062 311.175781 234.164062 C 289.628906 234.164062 272.160156 216.699219 272.160156 195.148438 L 272.160156 99.949219 C 272.160156 78.398438 289.628906 60.933594 311.175781 60.933594 Z M 311.175781 60.933594 " clip-rule="nonzero"/></clipPath><clipPath id="f8f54b107f"><path d="M 0.160156 0.933594 L 78.191406 0.933594 L 78.191406 127 L 0.160156 127 Z M 0.160156 0.933594 " clip-rule="nonzero"/></clipPath><clipPath id="03c9d24efc"><path d="M 39.175781 0.933594 C 60.722656 0.933594 78.191406 18.398438 78.191406 39.949219 L 78.191406 135.148438 C 78.191406 156.699219 60.722656 174.164062 39.175781 174.164062 C 17.628906 174.164062 0.160156 156.699219 0.160156 135.148438 L 0.160156 39.949219 C 0.160156 18.398438 17.628906 0.933594 39.175781 0.933594 Z M 39.175781 0.933594 " clip-rule="nonzero"/></clipPath><clipPath id="5848f05839"><rect x="0" width="79" y="0" height="127"/></clipPath><clipPath id="ba3a731cf1"><path d="M 222.582031 106.785156 L 283.066406 106.785156 L 283.066406 187 L 222.582031 187 Z M 222.582031 106.785156 " clip-rule="nonzero"/></clipPath><clipPath id="6a10d27cb2"><path d="M 252.824219 106.785156 C 260.84375 106.785156 268.539062 109.972656 274.210938 115.644531 C 279.882812 121.316406 283.066406 129.007812 283.066406 137.027344 L 283.066406 188.9375 C 283.066406 196.957031 279.882812 204.652344 274.210938 210.324219 C 268.539062 215.996094 260.84375 219.179688 252.824219 219.179688 C 244.804688 219.179688 237.109375 215.996094 231.4375 210.324219 C 225.765625 204.652344 222.582031 196.957031 222.582031 188.9375 L 222.582031 137.027344 C 222.582031 129.007812 225.765625 121.316406 231.4375 115.644531 C 237.109375 109.972656 244.804688 106.785156 252.824219 106.785156 Z M 252.824219 106.785156 " clip-rule="nonzero"/></clipPath><clipPath id="be46f43930"><path d="M 0.582031 0.785156 L 61.066406 0.785156 L 61.066406 81 L 0.582031 81 Z M 0.582031 0.785156 " clip-rule="nonzero"/></clipPath><clipPath id="e82d080af8"><path d="M 30.824219 0.785156 C 38.84375 0.785156 46.539062 3.972656 52.210938 9.644531 C 57.882812 15.316406 61.066406 23.007812 61.066406 31.027344 L 61.066406 82.9375 C 61.066406 90.957031 57.882812 98.652344 52.210938 104.324219 C 46.539062 109.996094 38.84375 113.179688 30.824219 113.179688 C 22.804688 113.179688 15.109375 109.996094 9.4375 104.324219 C 3.765625 98.652344 0.582031 90.957031 0.582031 82.9375 L 0.582031 31.027344 C 0.582031 23.007812 3.765625 15.316406 9.4375 9.644531 C 15.109375 3.972656 22.804688 0.785156 30.824219 0.785156 Z M 30.824219 0.785156 " clip-rule="nonzero"/></clipPath><clipPath id="97c45a867c"><rect x="0" width="62" y="0" height="81"/></clipPath><clipPath id="456308812d"><rect x="0" width="600" y="0" height="187"/></clipPath></defs><g transform="matrix(1, 0, 0, 1, 67, -0.000000000000079794)"><g clip-path="url(#456308812d)"><g clip-path="url(#dde3468d97)"><g transform="matrix(1, 0, 0, 1, -0.000000000000028422, -0.000000000000079794)"><g clip-path="url(#41ab79adbb)"><g clip-path="url(#bfd3f7d4db)"><g fill="#ff0000" fill-opacity="1"><g transform="translate(0.779383, 601.583462)"><g><path d="M 247 6.484375 C 205.363281 6.484375 168.675781 -2.164062 136.9375 -19.46875 C 105.207031 -36.78125 80.375 -62.800781 62.4375 -97.53125 C 44.507812 -132.257812 35.546875 -175.070312 35.546875 -225.96875 C 35.546875 -276.875 44.507812 -319.6875 62.4375 -354.40625 C 80.375 -389.132812 105.207031 -415.15625 136.9375 -432.46875 C 168.675781 -449.78125 205.363281 -458.4375 247 -458.4375 C 290.476562 -458.4375 327.414062 -449.9375 357.8125 -432.9375 C 388.207031 -415.9375 409.898438 -390.019531 422.890625 -355.1875 L 357.65625 -315.3125 L 349.9375 -315.625 C 340.25 -339.113281 327.109375 -355.957031 310.515625 -366.15625 C 293.929688 -376.363281 272.757812 -381.46875 247 -381.46875 C 209.488281 -381.46875 180.222656 -369.050781 159.203125 -344.21875 C 138.179688 -319.382812 127.671875 -279.96875 127.671875 -225.96875 C 127.671875 -172.1875 138.179688 -132.878906 159.203125 -108.046875 C 180.222656 -83.210938 209.488281 -70.796875 247 -70.796875 C 305.726562 -70.796875 341.6875 -99.335938 354.875 -156.421875 L 362.609375 -156.421875 L 428.453125 -122.109375 C 416.085938 -79.242188 394.960938 -47.09375 365.078125 -25.65625 C 335.191406 -4.226562 295.832031 6.484375 247 6.484375 Z M 247 6.484375 "/></g></g></g></g></g></g></g><g clip-path="url(#bb9543154c)"><g transform="matrix(1, 0, 0, 1, 350, 127)"><g clip-path="url(#ef847d63e2)"><g clip-path="url(#8c20becea3)"><path fill="#ffffff" d="M 0.191406 0.105469 L 249.074219 0.105469 L 249.074219 248.988281 L 0.191406 248.988281 Z M 0.191406 0.105469 " fill-opacity="1" fill-rule="nonzero"/></g></g></g></g><g clip-path="url(#f17435a374)"><g clip-path="url(#51d795cbc7)"><g transform="matrix(1, 0, 0, 1, 272, 60)"><g clip-path="url(#5848f05839)"><g clip-path="url(#f8f54b107f)"><g clip-path="url(#03c9d24efc)"><path fill="#ff0000" d="M 0.160156 0.933594 L 78.191406 0.933594 L 78.191406 174.0625 L 0.160156 174.0625 Z M 0.160156 0.933594 " fill-opacity="1" fill-rule="nonzero"/></g></g></g></g></g></g><g clip-path="url(#ba3a731cf1)"><g clip-path="url(#6a10d27cb2)"><g transform="matrix(1, 0, 0, 1, 222, 106)"><g clip-path="url(#97c45a867c)"><g clip-path="url(#be46f43930)"><g clip-path="url(#e82d080af8)"><path fill="#ff0000" d="M 0.582031 0.785156 L 61.066406 0.785156 L 61.066406 113.253906 L 0.582031 113.253906 Z M 0.582031 0.785156 " fill-opacity="1" fill-rule="nonzero"/></g></g></g></g></g></g></g></g></svg>