<svg xmlns="http://www.w3.org/2000/svg" xmlns:xlink="http://www.w3.org/1999/xlink" width="900" zoomAndPan="magnify" viewBox="0 0 675 675.000002" height="900" preserveAspectRatio="xMidYMid meet" version="1.0"><defs><g/><clipPath id="0d9f458fb2"><path d="M 0.5 0 L 674.5 0 L 674.5 674 L 0.5 674 Z M 0.5 0 " clip-rule="nonzero"/></clipPath><clipPath id="222aa075bf"><path d="M 0.839844 0 L 453 0 L 453 674 L 0.839844 674 Z M 0.839844 0 " clip-rule="nonzero"/></clipPath><clipPath id="344ed96cf8"><rect x="0" width="453" y="0" height="674"/></clipPath><clipPath id="c1ba348cca"><path d="M 350.722656 127.253906 L 599.902344 127.253906 L 599.902344 376.433594 L 350.722656 376.433594 Z M 350.722656 127.253906 " clip-rule="nonzero"/></clipPath><clipPath id="f133a444b6"><path d="M 0.722656 0.253906 L 249.902344 0.253906 L 249.902344 249.433594 L 0.722656 249.433594 Z M 0.722656 0.253906 " clip-rule="nonzero"/></clipPath><clipPath id="85f7ca29e7"><rect x="0" width="250" y="0" height="250"/></clipPath><clipPath id="0fc641f225"><path d="M 272.601562 61.003906 L 350.722656 61.003906 L 350.722656 234.644531 L 272.601562 234.644531 Z M 272.601562 61.003906 " clip-rule="nonzero"/></clipPath><clipPath id="d5d55df147"><path d="M 311.664062 61.003906 C 333.234375 61.003906 350.722656 78.492188 350.722656 100.066406 L 350.722656 195.378906 C 350.722656 216.953125 333.234375 234.441406 311.664062 234.441406 C 290.089844 234.441406 272.601562 216.953125 272.601562 195.378906 L 272.601562 100.066406 C 272.601562 78.492188 290.089844 61.003906 311.664062 61.003906 Z M 311.664062 61.003906 " clip-rule="nonzero"/></clipPath><clipPath id="d9d4442857"><path d="M 0.601562 0.00390625 L 78.722656 0.00390625 L 78.722656 173.613281 L 0.601562 173.613281 Z M 0.601562 0.00390625 " clip-rule="nonzero"/></clipPath><clipPath id="e7a590ddec"><path d="M 39.664062 0.00390625 C 61.234375 0.00390625 78.722656 17.492188 78.722656 39.066406 L 78.722656 134.378906 C 78.722656 155.953125 61.234375 173.441406 39.664062 173.441406 C 18.089844 173.441406 0.601562 155.953125 0.601562 134.378906 L 0.601562 39.066406 C 0.601562 17.492188 18.089844 0.00390625 39.664062 0.00390625 Z M 39.664062 0.00390625 " clip-rule="nonzero"/></clipPath><clipPath id="61ca253a9d"><rect x="0" width="79" y="0" height="174"/></clipPath><clipPath id="475db514f3"><path d="M 222.960938 106.910156 L 283.523438 106.910156 L 283.523438 219.515625 L 222.960938 219.515625 Z M 222.960938 106.910156 " clip-rule="nonzero"/></clipPath><clipPath id="7a13865457"><path d="M 253.242188 106.910156 C 261.273438 106.910156 268.976562 110.101562 274.652344 115.78125 C 280.332031 121.457031 283.523438 129.160156 283.523438 137.191406 L 283.523438 189.160156 C 283.523438 197.191406 280.332031 204.894531 274.652344 210.570312 C 268.976562 216.25 261.273438 219.441406 253.242188 219.441406 C 245.210938 219.441406 237.511719 216.25 231.832031 210.570312 C 226.152344 204.894531 222.960938 197.191406 222.960938 189.160156 L 222.960938 137.191406 C 222.960938 129.160156 226.152344 121.457031 231.832031 115.78125 C 237.511719 110.101562 245.210938 106.910156 253.242188 106.910156 Z M 253.242188 106.910156 " clip-rule="nonzero"/></clipPath><clipPath id="69cced48e8"><path d="M 0.960938 0.910156 L 61.523438 0.910156 L 61.523438 113.515625 L 0.960938 113.515625 Z M 0.960938 0.910156 " clip-rule="nonzero"/></clipPath><clipPath id="d637c13dea"><path d="M 31.242188 0.910156 C 39.273438 0.910156 46.976562 4.101562 52.652344 9.78125 C 58.332031 15.457031 61.523438 23.160156 61.523438 31.191406 L 61.523438 83.160156 C 61.523438 91.191406 58.332031 98.894531 52.652344 104.570312 C 46.976562 110.25 39.273438 113.441406 31.242188 113.441406 C 23.210938 113.441406 15.511719 110.25 9.832031 104.570312 C 4.152344 98.894531 0.960938 91.191406 0.960938 83.160156 L 0.960938 31.191406 C 0.960938 23.160156 4.152344 15.457031 9.832031 9.78125 C 15.511719 4.101562 23.210938 0.910156 31.242188 0.910156 Z M 31.242188 0.910156 " clip-rule="nonzero"/></clipPath><clipPath id="a2fda764b2"><rect x="0" width="62" y="0" height="114"/></clipPath><clipPath id="2b1c39d14e"><path d="M 327 377 L 534 377 L 534 579 L 327 579 Z M 327 377 " clip-rule="nonzero"/></clipPath><clipPath id="44c68558f5"><path d="M 327.902344 486.261719 L 407.199219 377.511719 L 533.269531 469.433594 L 453.972656 578.183594 Z M 327.902344 486.261719 " clip-rule="nonzero"/></clipPath><clipPath id="abc11e3c39"><path d="M 0.714844 0.441406 L 206.332031 0.441406 L 206.332031 201.261719 L 0.714844 201.261719 Z M 0.714844 0.441406 " clip-rule="nonzero"/></clipPath><clipPath id="8506a37f26"><path d="M 0.902344 109.261719 L 80.199219 0.511719 L 206.269531 92.433594 L 126.972656 201.183594 Z M 0.902344 109.261719 " clip-rule="nonzero"/></clipPath><clipPath id="d56bdd3bb7"><rect x="0" width="207" y="0" height="202"/></clipPath><clipPath id="25b4e05205"><path d="M 350.761719 299.921875 L 445 299.921875 L 445 394.167969 L 350.761719 394.167969 Z M 350.761719 299.921875 " clip-rule="nonzero"/></clipPath><clipPath id="82c2706718"><path d="M 253.242188 298.015625 L 331.660156 298.015625 L 331.660156 376.433594 L 253.242188 376.433594 Z M 253.242188 298.015625 " clip-rule="nonzero"/></clipPath><clipPath id="2922a99ced"><path d="M 292.453125 298.015625 C 270.796875 298.015625 253.242188 315.570312 253.242188 337.226562 C 253.242188 358.878906 270.796875 376.433594 292.453125 376.433594 C 314.105469 376.433594 331.660156 358.878906 331.660156 337.226562 C 331.660156 315.570312 314.105469 298.015625 292.453125 298.015625 Z M 292.453125 298.015625 " clip-rule="nonzero"/></clipPath><clipPath id="7a61d77442"><path d="M 0.242188 0.015625 L 78.660156 0.015625 L 78.660156 78.433594 L 0.242188 78.433594 Z M 0.242188 0.015625 " clip-rule="nonzero"/></clipPath><clipPath id="8bf624db14"><path d="M 39.453125 0.015625 C 17.796875 0.015625 0.242188 17.570312 0.242188 39.226562 C 0.242188 60.878906 17.796875 78.433594 39.453125 78.433594 C 61.105469 78.433594 78.660156 60.878906 78.660156 39.226562 C 78.660156 17.570312 61.105469 0.015625 39.453125 0.015625 Z M 39.453125 0.015625 " clip-rule="nonzero"/></clipPath><clipPath id="3cff43485a"><rect x="0" width="79" y="0" height="79"/></clipPath><clipPath id="e228eb947c"><rect x="0" width="600" y="0" height="674"/></clipPath></defs><g clip-path="url(#0d9f458fb2)"><path fill="#ffffff" d="M 0.5 0 L 674.5 0 L 674.5 674 L 0.5 674 Z M 0.5 0 " fill-opacity="1" fill-rule="nonzero"/><path fill="#ffffff" d="M 0.5 0 L 674.5 0 L 674.5 674 L 0.5 674 Z M 0.5 0 " fill-opacity="1" fill-rule="nonzero"/></g><g transform="matrix(1, 0, 0, 1, 67, -0.000000000000005375)"><g clip-path="url(#e228eb947c)"><g clip-path="url(#222aa075bf)"><g transform="matrix(1, 0, 0, 1, -0.000000000000014211, -0.000000000000005375)"><g clip-path="url(#344ed96cf8)"><g fill="#ff0000" fill-opacity="1"><g transform="translate(0.899405, 602.295333)"><g><path d="M 247.28125 6.5 C 205.601562 6.5 168.875 -2.164062 137.09375 -19.5 C 105.320312 -36.832031 80.460938 -62.878906 62.515625 -97.640625 C 44.566406 -132.410156 35.59375 -175.273438 35.59375 -226.234375 C 35.59375 -277.203125 44.566406 -320.066406 62.515625 -354.828125 C 80.460938 -389.597656 105.320312 -415.648438 137.09375 -432.984375 C 168.875 -450.316406 205.601562 -458.984375 247.28125 -458.984375 C 290.820312 -458.984375 327.804688 -450.46875 358.234375 -433.4375 C 388.671875 -416.414062 410.390625 -390.472656 423.390625 -355.609375 L 358.078125 -315.6875 L 350.34375 -316 C 340.644531 -339.519531 327.488281 -356.382812 310.875 -366.59375 C 294.269531 -376.8125 273.070312 -381.921875 247.28125 -381.921875 C 209.726562 -381.921875 180.429688 -369.488281 159.390625 -344.625 C 138.347656 -319.757812 127.828125 -280.296875 127.828125 -226.234375 C 127.828125 -172.390625 138.347656 -133.035156 159.390625 -108.171875 C 180.429688 -83.304688 209.726562 -70.875 247.28125 -70.875 C 306.082031 -70.875 342.085938 -99.453125 355.296875 -156.609375 L 363.03125 -156.609375 L 428.953125 -122.25 C 416.578125 -79.332031 395.429688 -47.144531 365.515625 -25.6875 C 335.597656 -4.226562 296.1875 6.5 247.28125 6.5 Z M 247.28125 6.5 "/></g></g></g></g></g></g><g clip-path="url(#c1ba348cca)"><g transform="matrix(1, 0, 0, 1, 350, 127)"><g clip-path="url(#85f7ca29e7)"><g clip-path="url(#f133a444b6)"><path fill="#ffffff" d="M 0.722656 0.253906 L 249.902344 0.253906 L 249.902344 249.433594 L 0.722656 249.433594 Z M 0.722656 0.253906 " fill-opacity="1" fill-rule="nonzero"/></g></g></g></g><g clip-path="url(#0fc641f225)"><g clip-path="url(#d5d55df147)"><g transform="matrix(1, 0, 0, 1, 272, 61)"><g clip-path="url(#61ca253a9d)"><g clip-path="url(#d9d4442857)"><g clip-path="url(#e7a590ddec)"><path fill="#ff0000" d="M 0.601562 0.00390625 L 78.722656 0.00390625 L 78.722656 173.339844 L 0.601562 173.339844 Z M 0.601562 0.00390625 " fill-opacity="1" fill-rule="nonzero"/></g></g></g></g></g></g><g clip-path="url(#475db514f3)"><g clip-path="url(#7a13865457)"><g transform="matrix(1, 0, 0, 1, 222, 106)"><g clip-path="url(#a2fda764b2)"><g clip-path="url(#69cced48e8)"><g clip-path="url(#d637c13dea)"><path fill="#ff0000" d="M 0.960938 0.910156 L 61.523438 0.910156 L 61.523438 113.515625 L 0.960938 113.515625 Z M 0.960938 0.910156 " fill-opacity="1" fill-rule="nonzero"/></g></g></g></g></g></g><g clip-path="url(#2b1c39d14e)"><g clip-path="url(#44c68558f5)"><g transform="matrix(1, 0, 0, 1, 327, 377)"><g clip-path="url(#d56bdd3bb7)"><g clip-path="url(#abc11e3c39)"><g clip-path="url(#8506a37f26)"><path fill="#ffffff" d="M 0.902344 109.261719 L 80.199219 0.511719 L 206.363281 92.503906 L 127.070312 201.253906 Z M 0.902344 109.261719 " fill-opacity="1" fill-rule="nonzero"/></g></g></g></g></g></g><path fill="#ff0000" d="M 442.363281 302.273438 L 352.78125 302.273438 L 352.78125 391.855469 Z M 442.363281 302.273438 " fill-opacity="1" fill-rule="nonzero"/><g clip-path="url(#25b4e05205)"><path fill="#ff0000" d="M 350.722656 391.855469 L 350.722656 302.273438 C 350.722656 300.804688 351.605469 299.921875 352.78125 299.921875 L 442.363281 299.921875 C 443.246094 299.921875 444.125 300.511719 444.421875 301.390625 C 445.007812 301.976562 444.714844 303.152344 444.125 303.742188 L 354.542969 393.324219 C 353.953125 393.914062 353.074219 394.207031 352.191406 393.914062 C 351.3125 393.324219 350.722656 392.738281 350.722656 391.855469 Z M 355.128906 304.328125 L 355.128906 386.277344 L 437.078125 304.328125 Z M 355.128906 304.328125 " fill-opacity="1" fill-rule="nonzero"/></g><g clip-path="url(#82c2706718)"><g clip-path="url(#2922a99ced)"><g transform="matrix(1, 0, 0, 1, 253, 298)"><g clip-path="url(#3cff43485a)"><g clip-path="url(#7a61d77442)"><g clip-path="url(#8bf624db14)"><path fill="#ff0000" d="M 0.242188 0.015625 L 78.660156 0.015625 L 78.660156 78.433594 L 0.242188 78.433594 Z M 0.242188 0.015625 " fill-opacity="1" fill-rule="nonzero"/></g></g></g></g></g></g></g></g></svg>